<?xml version="1.0" encoding="UTF-8"?>
<svg id="Layer_3" data-name="Layer 3" xmlns="http://www.w3.org/2000/svg" viewBox="0 0 500 500">
  <defs>
    <style>
      .cls-1 {
        fill: #363636;
      }

      .cls-2 {
        fill: #00a874;
      }
    </style>
  </defs>
  <path class="cls-2" d="M330.56,117.19l.2,161c-2.61-2.01-4.73-4.65-7.07-6.97-.95-.94-2.21-1.88-3.14-2.8-11.29-11.22-22.4-22.72-33.63-33.97v-72.83h-72.24l-25.53-25.88c-4.21-4.09-8.42-8.19-12.56-12.37-1.36-1.38-3.11-3.13-4.65-4.7-.19-.19-.15-.5-.27-.63-.08-.08-1.09-.43-1.13-.85h160.02Z"/>
  <path class="cls-2" d="M214.38,234.56h63.17c-2.98,3.31-6.37,6.26-9.5,9.44-.96.98-1.79,2.14-2.75,3.12-10.97,11.11-21.97,21.77-32.69,32.87h-63.27v-64.16s.35-.02.5-.19c5.43-6.19,12.39-11.97,17.47-17.91l27.06-27.13v63.96Z"/>
  <path class="cls-1" d="M280.54,295.73h18.73v87.08h-21.32v-54c-.4-.05-.66.34-.9.6-7.42,8.02-14.07,17.65-21.61,25.41-.23.23-.68.77-.94.85-.58.17-2.99.14-3.46-.24l-23.1-26.82v54.2h-21.32v-87.08h18.43l27.9,32.09,27.6-32.09Z"/>
  <path class="cls-1" d="M315.61,382.61l.2-86.88h38.57c29.25-.06,49.79,19.5,46.72,49.52-2.51,24.53-21.79,36.28-44.93,37.37h-40.56ZM337.13,311.97v54.6l.69.31c12.09-.48,25.47,1.9,34.59-7.88s9.37-28.85.7-38.76-22.83-8.28-35.29-8.58l-.69.31Z"/>
  <path class="cls-1" d="M196.44,382.61h-23.12l-6.97-17.05c-8.85-.09-17.78-.28-26.62.12l-11.92.02-6.6,16.91h-22.62l34.97-86.89,24.72.21,38.16,86.68ZM159.97,350.33l-13.75-33.48-12.75,33.48h26.5Z"/>
</svg>