<?xml version="1.0" encoding="UTF-8"?>
<svg id="Layer_1" data-name="Layer 1" xmlns="http://www.w3.org/2000/svg" viewBox="0 0 500 500">
  <defs>
    <style>
      .cls-1 {
        fill: #e61d2b;
      }
    </style>
  </defs>
  <path class="cls-1" d="M336.01,287.21c-3.66,3.86-10.81,11.96-16.77,8.59-4.54-2.57-2.87-10.46-1.82-14.6.82-3.21,2.58-6.7,3.24-9.7.05-.22.17-.61-.08-.6l-5.44,1.04c-4.67,8.45-11.36,17.4-19.84,22.36-4.27,2.49-10.9,4.36-12.81-1.92-3.46-11.37,10.43-29.45,18.52-36.61,3.86-3.42,14.64-11.1,18.92-4.91,3.2,4.62-1.3,13.33-2.85,17.98.22.21,5.37-.76,5.67-1.71,7.99-17.06,18.59-32.7,31.64-46.28,5.22-5.42,17.69-17.63,25.28-17.97,5.53-.25,4.69,4.2,3.56,7.97-.24.82-1.37,3.87-1.87,4.34-.3.29-3.49,1.27-3.64,1.15.75-1.41,4.61-8.66,3.13-9.72-1.17-.84-5.09,2.2-6.1,3-12.05,9.53-23.89,26.28-31.7,39.49-1.58,2.67-5.45,8.72-6.27,11.33-.04.13-.07.42.12.38,12.29-8.74,22.98-19.84,32.28-31.67,1.13-.42,2.43-.59,3.61-.28-11.16,14.34-24.01,27.56-39.13,37.76-2.05,4.05-4.19,8.61-5.36,13.01-2.22,8.34.11,11.63,6.54,4.46,8.46-9.45,19.53-32.9,33.2-35.15,3.46-.57,5.53.45,7.48,3.33l1.55-2.33h9.46c.03.52-.34.93-.57,1.37-5.47,10.23-12.25,19.86-17.87,30.01-.68,1.22-3.03,4.88-2.17,6.14.53.77,2.82-.67,3.39-1.04,4.94-3.2,8.57-9.41,12.22-13.93l3.19.08c-4.91,7.04-10.43,14.71-17.24,20.04-2.79,2.18-8.78,6.07-12.05,2.99-.35-.33-1.28-1.99-1.28-2.34v-4.01c-3.64,3.16-10.15,9.44-15.38,6.68-1.1-.58-2.76-2.74-2.76-3.97v-4.79ZM313.92,253.13c-3.01.52-6.59,4.51-6.64,7.6-.02,1.42.86,3.54,1.79,4.62.77.89,3.84,3.14,4.92,2.6.59-.29,2.67-4.71,2.98-5.57,1.16-3.28,2.59-10.22-3.05-9.25ZM373.26,254.17c-.97-1.06-3.06-.34-4.16.24-6.07,3.21-19.98,22.85-20.88,29.59-.54,4.06,2.05,4.45,4.78,2.18,5.85-4.86,14.06-19.48,18.05-26.47.55-.96,2.24-3.5,2.44-4.31.11-.44.1-.88-.22-1.23ZM312.16,270.93c-2.22-.89-4.62-2.5-6.2-4.29-.4-.45-1.88-3.02-2.34-2.71-3.17,5.09-10.72,14.59-9.83,20.8.21,1.49,1.62,2.84,3.18,2.73,4.43-.32,11.25-9.57,13.48-13.2.33-.53,1.94-2.98,1.7-3.33Z"/>
  <path class="cls-1" d="M240.13,226.17l-20,33.45c-2.75,5.66.72,4.55,3.94,1.86,3.93-3.28,7.45-8,10.68-11.97l3.31.07c-4.47,6.09-9.34,12.57-15.02,17.59-5.24,4.63-15.8,11.18-15.68-1.17-3.08,3.65-11.01,9.37-15.77,6.17-3.35-2.25-1.65-7.75-.89-10.9.08-.33.5-.49-.18-.44-5.67,5.8-18.35,17.2-26.57,10.22-5.42-4.6-2.48-13.65.04-19.11,1-2.17,2.41-4.16,3.33-6.37l-5.05,1.3c-4.18,7.02-8.74,13.82-14.9,19.27-4.32,3.83-14.13,11.04-18.71,3.93-4.57-7.09,2.83-20.14,7.1-26.13,5.1-7.16,16.82-20.1,26.49-18.78,8.09,1.11,4.6,13.3,1.97,17.96,2.23.03,4.7-1.5,6.56-2.77,6.98-4.76,14.97-16.26,24.38-15.19,5.23.6,6.82,5.23,5.2,9.8-.96,2.71-4.96,9.62-8.55,7.25-2.97-1.96.4-7.25,2.81-8.32,1.73-.77,3.86.13,3.23-2.62-.54-2.36-3.72-1.43-5.21-.65-7.48,3.94-17.25,18.55-19.48,26.6-1.99,7.17.97,11.69,8.24,7.45,13.89-8.1,25.3-35.68,40.55-39.19,3.37-.78,5.26-.13,7.44,2.5l1.3-1.81h9.46ZM159.73,229.59c-3.77.64-7.75,6.14-5.94,9.95.83,1.75,4.47,4.15,6.4,3.96.92-.09,2.34-3.68,2.66-4.59,1.21-3.38,2.67-10.31-3.12-9.32ZM224.77,229.85c-3.6.6-9.17,8.15-11.44,11.09-3.55,4.59-7.63,10.1-9.97,15.4-1,2.27-3.75,9.05,1.53,7.48,2.67-.8,7.91-8.37,9.58-10.87,4.61-6.89,8.48-14.29,12.84-21.34.39-1.73-1.11-2-2.55-1.76ZM149.82,239.88c-3.26,4.65-7.03,9.45-8.94,14.86-.75,2.11-1.89,5.4-.74,7.47,1.8,3.24,5.72.49,7.62-1.12,4.5-3.83,7.92-9.16,10.97-14.16.1-.32.04-.51-.22-.72-.45-.35-3.2-1.25-4.15-1.81-2.08-1.21-3.28-2.48-4.53-4.53Z"/>
  <path class="cls-1" d="M310.36,206.76c.09-.62,0-.41-.36-.54-4.13-1.54-11.89,3.43-15.27,5.77-18.22,12.59-39.34,40.09-43.59,62.03-2.88,14.87,6.75,19.96,18.13,10.6,6.2-5.1,12.45-13.79,14.72-21.52.96-3.27,2.74-10.53-2.99-9.45-5.15.98-9.21,10.6-10.18,15.19-4.78,2.28-9.05,5.49-12.69,9.32.09-4.25,1.71-8.94,3.45-12.85,2.58-5.8,6.3-10.79,11.89-14,8.69-4.99,15.89-2.79,14.3,8.32-1.56,10.84-10.71,24.08-19.42,30.53-18.75,13.89-35.24,4.04-30.17-19.25,5.41-24.85,35.83-59.91,60.37-67.52,5.04-1.56,10.94-2.32,15.29,1.29,4.64-1.63,9.84-2.84,14.79-2.59,10.52.55,19.3,8.35,28.36,12.81l-6.85,7.13c-.22.22-.43.25-.72.2-.78-.11-3.91-2.15-4.84-2.7-6.9-4.15-16.71-12.29-25-12.24-.51,0-3.02.33-3.35.53-.31.19-.36.22-.43.6-.24,1.26.12,3.2-.03,4.63-.88,8.79-12.93,28.41-23.13,27.29-7.69-.84-3.28-11.25-1.07-15.24,4.25-7.68,11.39-13.81,18.79-18.36ZM312.69,209.09c-7.75,3.62-16.11,11.93-19.84,19.65-2.21,4.59-2.99,11.57,4.27,7.62,6.04-3.28,15.57-16.33,15.57-23.26v-4.01Z"/>
  <path class="cls-1" d="M228.73,298.33c-4.8-2.96-10.13-5.22-15.75-6.13-7.48-1.21-15.25-1.05-19.99,5.71l-.53.16c-7.47-12.7-24.61-10.99-37.11-8.72-14.57,2.65-35.91,11.61-49.61,4.11-17.75-9.72-10.31-35.66-2.55-49.71,8.99-16.29,31.46-39.13,50.57-41.87,12.38-1.77,15.89,7.68,8.4,16.4-5.47,6.36-10,.46-5.58-4.79.62-.74,1.74-1.66,2.62-2.04,1.96-.84,4.17.05,3.41-3.21-.65-2.81-4.45-2.17-6.48-1.66-13.9,3.51-32,26.62-38.86,38.81-12.64,22.48-16.6,50.61,19.31,45.14,23.71-3.61,52.37-17.32,75.5-5.17,4.53,2.38,12.92,8.22,16.15,12.07.24.29.63.42.52.91Z"/>
  <path class="cls-1" d="M361.67,226.68l7-7.88c14,.44,26.9-6.87,36.53-16.43-.76,1.82-2,3.65-3.16,5.25-8.87,12.3-24.68,22.21-40.38,19.06Z"/>
  <path class="cls-1" d="M256.46,226.17c.38.34-4.69,7.5-4.92,8.54h-9.33l5.31-8.54h8.94Z"/>
</svg>