<?xml version="1.0" encoding="UTF-8"?>
<svg id="Layer_3" data-name="Layer 3" xmlns="http://www.w3.org/2000/svg" xmlns:xlink="http://www.w3.org/1999/xlink" viewBox="0 0 500 500">
  <defs>
    <style>
      .cls-1 {
        fill: #52b12f;
      }

      .cls-2 {
        fill: #1b5c29;
      }

      .cls-3 {
        fill: none;
      }

      .cls-4 {
        fill: #f4711f;
      }

      .cls-5 {
        clip-path: url(#clippath);
      }
    </style>
    <clipPath id="clippath">
      <rect class="cls-3" x="95.89" y="99" width="308.21" height="302"/>
    </clipPath>
  </defs>
  <path class="cls-2" d="M277.68,328.65h0c-2.06-2.25-5.15-2.5-8.07-2.5-3.09,0-5.97.45-9.9,3.11,4.92-12.26,12.7-29.01,12.78-29.19l.39-.81-.9.09s-4.75.49-14.23,2.72l-.27.07-.7,1.9-19.77,51.51s-1.45,3.12-5.77,5.62c-2.26,1.31-3.53,1.47-4.28,1.58-.36.1-.73-.12-.83-.48-.03-.1-.03-.22,0-.32.57-1.58,2.18-5.96,2.18-5.96,4.79-13.41,7.77-21.49,9.1-24.7l1.74-4.19h-13.05s-.23.42-.31.57c-1.5-.9-3.27-1.43-5.33-1.43-2.9,0-6.62,1.65-11.73,5.2-5.25,3.69-9.76,7.97-13.43,12.75-4.58,6.05-6.9,12.1-6.9,17.98,0,2.71.63,5.06,1.88,7,1.03,1.63,3.06,3.57,6.89,3.57,4.96,0,9.77-1.85,14.29-5.39.35,1.21,1.1,2.33,2.52,3.34,1.86,1.34,4.48,1.98,5.53,2.04,1.05.05,4.94-.14,8.38-1.91,2.92-1.5,4.73-3.44,6.36-5.95.85,2.05,1.96,3.79,3.34,5.16,1.8,1.8,4.07,2.72,6.74,2.72,7.47,0,15.32-3.68,23.31-10.94,8.63-7.81,13.01-16.29,13.01-25.19,0-3.1-1-5.78-2.97-7.96h0ZM259.99,355.49c-5.09,7.56-6.77,8.01-8.57,8.15-1.03.09-1.79-.24-2.37-.75-.48-.43-.72-1.06-.67-1.7,0,0,.11-.98.21-1.37.11-.39,1.51-5.34,3.83-10.59,2.32-5.26,3.25-6.58,5.04-8.68,2.99-3.53,6.3-5,7.94-4.08,3.24,1.8-1.52,13.24-5.41,19.03h0ZM203.47,362.81c-2.67-1.3-.59-7.13,4.03-15.45,3.76-6.8,7.5-10.22,11.04-10.22.44,0,.93.1,1.55.79.57.63.83,1.25.83,1.92,0,1.87-1,5.67-5.77,13.11-4.2,6.54-9.49,10.91-11.67,9.86M364.67,329.93c-1.79-1.9-4.31-2.87-7.5-2.87-2.41,0-4.85,1.08-7.39,2.89.29-.82.83-2.33.83-2.33l-13.6-.02-10.48,31.25c-1.47,1.55-3.29,2.95-4.08,3.42-1.7.99-4.13,1.9-6.17,1.08,0,0-.99-.5-.77-1.09l3.85-11.32c2.8-8.26,5.27-15.13,7.15-19.87l1.65-4.15h-13.76l-.75,1.96c-2.43,6.44-4.45,11.3-6.17,14.87-2.7,5.68-5.41,10.07-8.03,13.04-2.42,2.69-4.58,4.85-7.32,4.84-.22,0-.47,0-.67-.05-.38-.09-.68-.56-.54-.87,2.07-5.46,13.18-33.8,13.18-33.8h-14.06s-13.44,34.12-13.67,37.14c-.18,2.49,1.11,4.58,2.84,6.23,1.71,1.63,3.81,2.45,6.23,2.45,4.47,0,9.54-2.63,15.4-7.77,0,.02-.05.12-.05.12,0,.01-.27,1.39-.27,1.39,0,1.31.73,3.19,4.19,4.76,2.24,1,4.35,1.51,6.26,1.51,3.32,0,6.07-.48,9.57-2.86,1.51-1.02,2.55-2.06,3.35-3.11l-2,5.97h13.56l.65-2.16c1.65-5.58,3.3-10.41,4.88-14.36,2.23-5.68,4.48-10.26,6.7-13.64,2.55-3.84,3.94-4.4,5.17-4.88,0,0,.92-.45,2.68-.63,1.48-.15,2.97.99,3.39,1.88.47.96-.12,2.61-.67,3.97-.49,1.23-.85,2.11-.46,2.68.12.18.37.4.83.4,2.69,0,4.94-1.01,6.52-2.9,1.46-1.77,2.2-3.89,2.2-6.3,0-2.71-.89-5.02-2.65-6.86M168.36,297.64l.02.02c-.13-.09-13.31-8-26.04-8.7-15.09-.83-41.83,5.88-46.33,36.28l1.01.21c3.55-13.53,16.32-26.35,30.37-30.47,8.5-2.48,18.01-1.52,26.79,2.72,10.52,5.29,19.05,17.76,20.28,29.64.71,6.9-.64,16.89-11.13,25.24-8.75,7.09-23.86,9.82-29.38,5.31-2.58-2.11-1.86-5.44-.3-10.24l17.27-43.94-.17-.23c-.33-.46-8.21-11.35-15.74-7.85-2.42,1.12-18.53,54.46-23.41,70.78l-.14.46.45.17c23.09,8.53,43.17,8.85,59.7.93,12.37-5.15,21.17-17.95,21.87-31.83.77-15.41-8.38-29.43-25.11-38.48M130.02,198.6c-.76-1.59-4.11-7.49-9.73-9.08-5.74-1.62-11,.69-13.53,2.53l23.26,6.55"/>
  <path class="cls-1" d="M117.34,201.2c5.24,1.51,10.79-1.35,12.68-2.61l-23.26-6.55c1.67,2.81,4.04,7.27,10.58,9.15"/>
  <path class="cls-2" d="M134.47,186.47c.26-2.12.4-8.63-3.39-12.94-4.04-4.58-9.5-5.49-12.62-5.23l16.01,18.17"/>
  <path class="cls-1" d="M122.47,181.83c3.7,4.01,9.73,4.73,12.01,4.63l-16.01-18.17c-.03,3.27-.62,8.54,4,13.54M151.78,246.29c-2.41-.89-11.39-2.52-17.12,1.5-5.88,4.12-7.67,11.05-8.05,14.72l25.16-16.22"/>
  <path class="cls-2" d="M143.71,260.85c5.97-3.88,7.95-11.6,8.07-14.57l-25.17,16.22c4.46,1.29,11.33,2.09,17.09-1.65"/>
  <path class="cls-1" d="M150.32,238.05c-1.49-2.33-9.37-10.65-18.08-11.41-8.41-.72-15.93,2.88-19.23,5.63l37.31,5.78"/>
  <path class="cls-2" d="M130.16,243.47c8.58,1.55,17.21-3.02,20.16-5.42l-37.31-5.78c3.73,4.64,9,9.73,17.15,11.2"/>
  <path class="cls-1" d="M214.54,165.76c-.98-2.3-5.75-10.53-13.4-13.44-8.39-3.19-16.29-.9-19.91,1.18l33.31,12.26"/>
  <path class="cls-2" d="M194.84,166.98c7.55,3.08,16.38.44,19.7-1.22l-33.31-12.26c2.6,4.92,6.45,10.56,13.61,13.48"/>
  <path class="cls-1" d="M170.94,258.16c.18-2.69-.04-8.61-3.89-13.03-4.14-4.76-9.68-5.71-12.64-5.88l16.53,18.91"/>
  <path class="cls-2" d="M158.59,252.61c3.84,4.44,9.91,5.79,12.35,5.56l-16.53-18.91c-.28,3.26.46,9.07,4.17,13.35"/>
  <path class="cls-1" d="M172.88,234.67c-.81-2.12-3.65-7.84-9.03-10.14-5.79-2.49-11.16-1.09-13.91.01l22.93,10.13"/>
  <path class="cls-2" d="M158.75,234.56c5.81,2.88,12.02,1.36,14.13.11l-22.93-10.13c1.26,3.02,3.75,7.51,8.81,10.03M149.37,214.26c-1.39-1.75-5.96-6.71-12.21-7.17-6.7-.5-11.41,3.46-13.63,5.65l25.84,1.53"/>
  <path class="cls-1" d="M136.54,219.97c5.92.33,11.25-4.08,12.83-5.71l-25.84-1.53c2.23,2.39,6.22,6.86,13.01,7.23"/>
  <path class="cls-2" d="M230.43,139.34c1.33-2.26,4.8-9.26,2.65-16.25-2.31-7.5-8.59-10.9-11.93-12.37l9.28,28.61"/>
  <g class="cls-5">
    <g>
      <path class="cls-1" d="M218.96,127.93c2.16,6.57,9.01,10.39,11.47,11.41l-9.28-28.61c-1.67,3.45-4.67,9.67-2.19,17.21M256.91,125.96c1.51-1.98,5.48-8.22,4.19-14.99-1.38-7.26-6.85-11.23-9.86-12.95l5.67,27.94"/>
      <path class="cls-2" d="M247.24,113.83c1.59,7.1,7.95,10.92,9.67,12.13l-5.67-27.94c-2.02,2.79-5.61,8.58-4,15.81"/>
    </g>
  </g>
  <path class="cls-1" d="M259.49,159.38c1.93-1.53,7.05-7.42,6.73-14.01-.3-6.11-5.55-11.45-8.43-13.44l1.71,27.45"/>
  <path class="cls-2" d="M251.41,146.42c.63,6.93,6.46,11.61,8.08,12.96l-1.71-27.45c-2.5,2.41-7.02,7.43-6.38,14.49"/>
  <path class="cls-1" d="M268.97,176.74c2.17-.98,8.21-4.54,9.69-11.64,1.21-5.86-2.35-12.2-4.54-14.79l-5.15,26.43"/>
  <path class="cls-2" d="M264.65,162.48c-1.08,6.28,3.15,12.58,4.32,14.26l5.15-26.43c-2.91,1.68-8.3,5.33-9.47,12.18"/>
  <path class="cls-1" d="M294.54,210.26c2.44.27,9.67.23,14.62-5.29,4.08-4.54,4.2-12.06,3.57-15.5l-18.19,20.79"/>
  <path class="cls-2" d="M297.98,195.32c-4.11,5.05-3.63,12.83-3.43,14.93l18.19-20.79c-2.95-.26-9.95-.06-14.76,5.86"/>
  <path class="cls-1" d="M345.51,195.17c2.5.18,9.74-.32,15.1-5.71,4.45-4.5,4.97-12.26,4.58-15.73l-19.68,21.44"/>
  <path class="cls-2" d="M349.71,179.82c-4.66,5.24-4.35,13.18-4.19,15.36l19.68-21.44c-3.05-.34-10.84.86-15.48,6.08"/>
  <path class="cls-1" d="M301.98,168.67c2.27-.53,9.13-3.08,11.99-8.89,2.72-5.52,1.36-12.22-.06-15.25l-11.93,24.15"/>
  <path class="cls-2" d="M301.74,153.96c-2.84,5.93-.44,12.81.24,14.7l11.93-24.15c-3.2.85-9.21,3.27-12.17,9.44"/>
  <path class="cls-1" d="M296.15,142.87c2.33-.29,9.53-2.1,13.09-7.66,3.38-5.28,2.66-12.08,1.84-15.41l-14.93,23.07"/>
  <path class="cls-2" d="M297.7,127.92c-3.56,5.68-2,12.96-1.55,14.95l14.93-23.06c-3.3.52-9.68,2.2-13.39,8.12"/>
  <path class="cls-1" d="M321.45,155.04c1.95.37,8.19.79,12.43-2.76,4.02-3.36,5.1-9.03,5.25-11.91l-17.68,14.67"/>
  <path class="cls-2" d="M326.36,143.42c-4.26,3.64-4.79,9.9-4.91,11.62l17.68-14.67c-2.78-.45-8.34-.75-12.78,3.05"/>
  <path class="cls-1" d="M344.83,170.89c2.04-.45,8.33-2.09,11.22-7.87,2.82-5.65,1.42-11,.46-13.89l-11.68,21.75"/>
  <path class="cls-2" d="M345.09,157.38c-2.74,5.34-.98,11.31-.26,13.5l11.68-21.75c-2.88.73-8.57,2.69-11.42,8.25"/>
  <path class="cls-1" d="M327.85,200.89c2.1-.5,8.55-2.28,11.42-8.28,2.8-5.86,1.29-11.34.24-14.3l-11.67,22.58"/>
  <path class="cls-2" d="M327.9,186.99c-2.73,5.54-.83,11.66-.05,13.9l11.67-22.58c-2.95.79-8.78,2.91-11.62,8.68"/>
  <path class="cls-1" d="M365.26,189.92c1.8.61,7.48,2.3,12.47-.84,4.88-3.07,6.35-7.89,6.98-10.59l-19.45,11.42"/>
  <path class="cls-2" d="M371.9,179.54c-4.68,2.86-6.16,8.34-6.64,10.38l19.45-11.42c-2.59-.79-7.95-1.94-12.82,1.04"/>
  <path class="cls-1" d="M356.37,209.61c1.64,1.1,6.81,4.14,12.71,2.54,5.89-1.59,8.13-6.11,9.85-8.7l-22.55,6.16"/>
  <path class="cls-2" d="M365.81,201.02c-5.45,1.6-8.41,6.68-9.44,8.59l22.55-6.16c-2.38-1.49-7.43-4.1-13.11-2.43M376.07,213.98c1.58,1.77,6.73,6.77,14.01,6.69,7.45-.09,11.53-4.28,13.94-7.27l-27.96.59"/>
  <path class="cls-1" d="M389.5,206.64c-6.76.29-11.69,5.38-13.43,7.33l27.96-.59c-2.32-2.44-7.48-7.04-14.53-6.74"/>
  <path class="cls-2" d="M355.05,213.16c-.14,1.97-.07,8.17,4.27,12.49,4.26,4.23,9.63,4.03,12.51,4.06l-16.78-16.55"/>
  <path class="cls-1" d="M367.43,217.13c-4.09-3.95-10.2-4.02-12.38-3.97l16.78,16.55c.12-2.8-.14-8.47-4.4-12.58M312.65,234.06c1.9-.6,7.69-2.91,9.97-8.63,2.22-5.59.4-10.4-.74-13.06l-9.23,21.7"/>
  <path class="cls-2" d="M311.76,220.96c-2.17,5.29.03,11.08.89,13.11l9.23-21.7c-2.68.92-7.85,3.08-10.12,8.59"/>
  <path class="cls-1" d="M342.54,242.61c.77-1.99,1.49-8.56-1.62-13.06-3.24-4.7-8.57-6.07-11.39-6.56l13.01,19.62"/>
  <path class="cls-2" d="M331.49,236.56c3.08,4.27,8.9,5.67,11.04,6.05l-13.01-19.62c-.78,2.58-1.53,8.71,1.97,13.56"/>
  <path class="cls-1" d="M318.4,143.33c2.27-.46,8.94-2.72,12.12-8.45,2.99-5.4,1.7-12.11.65-15.31l-12.77,23.75"/>
  <path class="cls-2" d="M318.75,128.54c-3.09,5.84-1.06,12.71-.35,14.79l12.77-23.75c-3.21.74-9.21,2.88-12.42,8.97M207.33,123.63c1.16-2.25,2.99-7.7,1.12-12.67-2.11-5.62-7.32-8.15-10.09-9.1l8.97,21.77"/>
  <path class="cls-1" d="M197.69,115.51c2.11,4.7,7.52,7.31,9.65,8.12l-8.97-21.77c-1.23,2.92-3.3,7.79-.68,13.65"/>
  <path class="cls-2" d="M244.82,146.76c1.83-1.92,5.19-6.83,4.74-12.34-.51-6.24-5.09-10.25-7.63-12l2.89,24.34"/>
  <path class="cls-1" d="M237.31,135.92c.77,5.31,5.59,9.42,7.51,10.84l-2.89-24.34c-2.09,2.57-5.59,6.87-4.63,13.5M270.94,139.81c2.11-1.36,6.3-5.18,7.15-10.39.97-5.89-2.27-10.73-4.18-12.93l-2.97,23.32"/>
  <path class="cls-2" d="M266.6,128c-.52,5.09,2.93,10.06,4.35,11.82l2.97-23.32c-2.5,1.9-6.68,5.14-7.32,11.5"/>
  <path class="cls-1" d="M280.52,150.6c1.91-.77,5.93-3.28,7.46-7.33,1.84-4.85-.22-9.27-1.42-11.33l-6.04,18.66"/>
  <path class="cls-2" d="M278.79,140.44c-1.13,4.04.85,8.53,1.73,10.16l6.04-18.66c-2.31,1.15-6.29,3.18-7.77,8.5"/>
  <path class="cls-1" d="M286.57,176.24c2.12-.84,6.62-3.46,8.31-7.89,2.01-5.3-.16-10.21-1.52-12.48l-6.79,20.37"/>
  <path class="cls-2" d="M284.65,165.19c-1.24,4.44.94,9.25,1.92,11.05l6.79-20.37c-2.56,1.25-7.09,3.5-8.71,9.33M209.66,150.27c.83-5.97-.54-11.49-3.85-15.45-4.17-5-11.49-6.5-14.7-6.26l18.54,21.71"/>
  <path class="cls-1" d="M194.95,143.85c3.45,3.82,7.63,5.99,14.71,6.42l-18.54-21.71c-.39,3.11-.48,10.52,3.83,15.29"/>
  <path class="cls-2" d="M227.9,196.93c2.47-5.21,3.24-11,1.28-15.54-2.92-6.78-9.23-9.29-12.22-9.99l10.94,25.53"/>
  <path class="cls-1" d="M216,186.54c2.05,4.48,5.55,7.95,11.89,10.39l-10.94-25.53c-1.24,2.72-3.52,9.54-.95,15.13"/>
  <path class="cls-2" d="M286.61,126.88c4.76-1.92,8.66-4.96,10.3-9.24,2.04-5.31-.28-11.98-1.88-14.38l-8.41,23.62"/>
  <path class="cls-1" d="M284.61,112.61c-1.65,4.31-.82,8.58,2,14.27l8.41-23.62c-2.93.9-8.38,4.02-10.41,9.35"/>
  <path class="cls-2" d="M245.17,180.68c3.11-5.05,5.09-11.01,3.86-15.78-2.06-7.97-8.82-11.37-11.72-12.6l7.86,28.37"/>
  <path class="cls-1" d="M233.73,169.08c1.49,5.02,5.72,9.05,11.44,11.6l-7.86-28.37c-2.51,3.6-5.44,10.51-3.58,16.77M304.27,183.04c6.23,2.43,13.51,2.7,18.74.29,8.39-3.87,11.05-12.4,12.27-15.72l-31,15.43"/>
  <path class="cls-2" d="M315.43,167.89c-5.42,2.84-9.13,8.58-11.15,15.15l31-15.43c-4.56-1.8-12.59-3.53-19.85.28"/>
  <path class="cls-1" d="M326.17,219.49c6.26,1.72,13.55,1.3,18.43-1.42,7.81-4.38,9.76-12.43,10.64-15.8l-29.07,17.22"/>
  <path class="cls-2" d="M335.66,204.3c-5.04,3.14-8.11,8.56-9.49,15.19l29.07-17.22c-4.66-1.26-13.06-2.03-19.58,2.03"/>
  <path class="cls-1" d="M368.78,253.69c1.71-6.79.74-13.43-2.16-17.76-4.57-6.79-12.44-8.6-15.75-9.21l17.91,26.97"/>
  <path class="cls-2" d="M353.61,245.49c3.2,4.41,8.76,6.93,15.17,8.2l-17.91-26.97c-1.4,4.69-1.8,12.5,2.74,18.77M224.38,163.33c2.69-4.88,3.53-10.61,1.88-15.04-2.36-6.33-8.09-9.49-10.96-10.53l9.09,25.57"/>
  <path class="cls-1" d="M213.39,152.5c1.76,4.8,4.86,8.02,10.99,10.83l-9.09-25.57c-1.41,2.63-4.01,8.99-1.91,14.73M156.81,179.94c.19-2.09.39-8.68-3.48-12.66-4.11-4.25-9.53-4.8-12.58-4.33l16.06,17"/>
  <path class="cls-2" d="M145.14,176.01c3.78,3.69,9.44,4.18,11.67,3.93l-16.06-17c-.2,2.65-.32,8.45,4.39,13.06M183.3,166.77c-.71-2.07-2.39-7.92-8.62-11.17-5.13-2.68-11.94-1.29-14.79.19l23.41,10.98"/>
  <path class="cls-1" d="M169.53,167.45c5.08,2.22,11.64.31,13.76-.68l-23.41-10.98c.95,2.61,3.3,8.88,9.65,11.66M187.53,144.3c-.15-2.58-.76-9.39-7.04-15.42-4.7-4.52-11.18-4.43-14.32-3.79l21.36,19.21"/>
  <path class="cls-2" d="M172.46,139.39c4.26,3.8,10.05,5.26,15.07,4.9l-21.36-19.21c.2,2.77.86,9.47,6.29,14.3M188.25,182.47c-1.04-1.93-4.45-8.11-10.37-9.68-6.29-1.67-11.96.73-14.53,2.66l24.9,7.02"/>
  <path class="cls-1" d="M174.92,185.36c5.65,1.36,11.39-1.57,13.33-2.89l-24.9-7.02c1.36,2.41,4.5,8.2,11.57,9.91"/>
  <path class="cls-2" d="M211.85,192.31c-.3-1.98-2.27-8.4-6.44-11.06-4.58-2.92-10.31-1.88-12.87-.82l19.31,11.89"/>
  <path class="cls-1" d="M199.8,191.99c4.4,2.45,10.11,1.16,12.05.32l-19.31-11.89c.62,2.32,1.94,8.61,7.26,11.57M162.42,213.8c.95-3.25,1.39-11.98-1.96-17.9-5.23-9.23-14.04-11.6-17.1-12.13l19.06,30.03"/>
  <path class="cls-2" d="M146.21,203c4.3,7.17,13.37,10.52,16.22,10.8l-19.06-30.03c-.85,3.74-1.59,11.83,2.85,19.23"/>
  <path class="cls-1" d="M201.42,210.17c-.43-3.37-3.52-11.91-9.02-16.09-8.56-6.52-17.82-5.24-20.87-4.53l29.89,20.63"/>
  <path class="cls-2" d="M181.68,206.52c7.08,5.11,17.21,4.48,19.74,3.65l-29.89-20.63c.48,3.69,3.32,12.04,10.15,16.98"/>
  <path class="cls-4" d="M268.07,234.97c-2.4,5.76-1.99,10.76,1,11,2.98.25,7.24-4.33,9.47-10.06,2.15-5.55,1.61-10.13-1.2-10.4-2.8-.27-6.92,3.9-9.27,9.47M254.13,193.31c-2.79,4.6-3.19,8.9-.82,9.46,2.36.58,6.48-2.8,9.12-7.39,2.56-4.46,2.77-8.43.55-8.99-2.22-.56-6.16,2.48-8.86,6.93M227.1,236.35c3.12-1.15,1.88-6.09-2.65-10.91-4.39-4.66-10.23-7.43-13.14-6.32-2.92,1.1-1.98,5.7,2.21,10.4,4.33,4.85,10.46,7.97,13.58,6.82"/>
  <path class="cls-4" d="M236.7,229.54c-10.91-15.3-13.34-20.57-27.62-32.69,3.27,6.04,55.42,75.33,6.81,39.11,0,0-27.96-19.37-64.53-17.35,0,0,71.2,7.54,83.72,55.5.11.44.29,2.91.23,3.7-.49,6.45-2.72,11.86-4.62,15.43-1.56,2.93-4.52,6.59-5.43,7.55-4.49,4.73-12.42,6.53-15.44,7.95,3.45,2.46,15.11.38,20.35.01l19.43.82c.53-.03,2.46.1,3.43.1l3.07-8.75s8.67-1.77,11.99-2.35c3.32-.59,7.05-.98,7.05-.98l-5.56,12.41c6.13.82,24.61,2.87,28.01.77-3.86-1.58-15.04-2.78-19.6-9.29-.65-.65-5.22-16.44-5.06-22.01,0-.2.02-.71.04-.79,8.61-57.44,67.31-78.22,67.31-78.22-38,8.61-58.49,38.45-58.49,38.45-38.54,48.18-11.81-22.7-3.85-31.06-14.35,11.1-19.61,27.53-19.61,27.53,4.38-46.61,43.74-51.06,43.74-51.06-20.28-.56-35.88,16.39-35.88,16.39-33.29,35.95-20.86-15.55-6.71-22.89-1.27.67-27.62,11.84-22.77,51.76"/>
</svg>