<?xml version="1.0" encoding="UTF-8"?>
<svg id="Layer_3" data-name="Layer 3" xmlns="http://www.w3.org/2000/svg" viewBox="0 0 500 500">
  <defs>
    <style>
      .cls-1 {
        fill: #30ea03;
      }
    </style>
  </defs>
  <polygon points="392.45 255.6 392.45 227.33 392.71 227.07 403.96 227.07 404.22 227.33 404.22 272.9 392.53 272.9 369.41 244.36 369.41 272.9 357.81 272.9 357.81 227.07 369.33 227.07 392.45 255.6"/>
  <path d="M322.62,226.08c18.93-1.19,33.73,17.98,23.96,35.35-9.47,16.85-35.56,16.7-44.8-.29-8.75-16.08,3.39-33.96,20.84-35.06ZM322.62,236.46c-9.22.94-14.63,11.11-10.73,19.44,4.18,8.93,16.39,10.53,22.81,3,8.07-9.47.32-23.7-12.07-22.43Z"/>
  <polygon points="107.38 227.07 107.38 244.71 130.41 244.71 130.41 227.07 142.02 227.07 142.02 272.9 130.41 272.9 130.41 255.43 107.38 255.43 107.38 272.9 95.78 272.9 95.78 227.07 107.38 227.07"/>
  <path d="M198.3,272.9h-12.47l-3.22-10.39-16.87.09-3.28,10.3h-12.47l14.98-45.66.51-.18,17.76.09,15.06,45.75ZM179.08,251.97l-4.94-14.88-4.94,14.88h9.87Z"/>
  <polygon points="217.87 227.07 217.87 262.18 243.33 262.18 243.33 272.9 206.27 272.9 206.27 227.07 217.87 227.07"/>
  <rect x="251.47" y="262.18" width="39.31" height="10.72"/>
  <polygon points="290.79 237.79 251.47 237.79 251.47 227.33 251.73 227.07 290.53 227.07 290.79 227.33 290.79 237.79"/>
  <rect class="cls-1" x="251.65" y="244.88" width="38.97" height="10.38"/>
</svg>