<?xml version="1.0" encoding="UTF-8"?>
<svg id="Layer_3" data-name="Layer 3" xmlns="http://www.w3.org/2000/svg" viewBox="0 0 500 500">
  <defs>
    <style>
      .cls-1 {
        fill: #cc0103;
      }
    </style>
  </defs>
  <path class="cls-1" d="M138.23,250.08c-1.31.08-2.7,1.38-3.22,2.52-.35.77-.42,1.66-.7,2.44-1.77,4.79-5.11,8.67-9.98,10.45-1.86.68-3.75.69-5.02,2.52-.39.56-.43,1.25-.87,1.72-.42-3.2-3.3-3.39-5.7-4.28-4.39-1.63-7.88-5.09-9.55-9.46-.97-2.55-1.03-5.36-4.4-5.98,3.73-.79,3.63-4.61,5-7.41,1.79-3.67,5.15-6.59,8.95-8.03,2.49-.94,5.13-1.06,5.78-4.28.87,3.23,3.23,3.3,5.82,4.24,4.04,1.47,7.6,4.81,9.33,8.75.84,1.91,1,4.46,2.71,5.78.65.5,1.31.53,1.87,1.03ZM116.86,240.02v-3.14c-2.43.51-5.03,1.26-6.76,3.14h6.76ZM127.07,240.02c-1.37-1.38-4.66-3.06-6.59-3.08-.19,0-.21.02-.32.17v2.91h6.92ZM111.04,243.48h-3.85c-2.41,3.88-2.41,9.17,0,13.04h3.85c-3.18-3.81-3.16-9.23,0-13.04ZM117.45,243.52c-7.92,1.07-7,14.06,2.14,12.99,8.13-.96,7.03-14.23-2.14-12.99ZM130.06,243.48h-4.09c3.18,3.72,3.22,9.33,0,13.04h4.09c2.14-4.14,2.14-8.9,0-13.04ZM127.07,259.82h-16.98c.23.64,1.34,1.27,1.94,1.6,4.63,2.58,10.81,2.36,14.84-1.24.1-.09.3.01.2-.36Z"/>
  <path class="cls-1" d="M153.64,236.57v10.06h9.27v-10.06h6.76v26.71c-1.88.09-4.36.38-6.22.17-.23-.03-.4-.02-.54-.24v-11.08h-9.27v11.16c-2.01.28-4.05.19-6.06,0-.27-.03-.5.28-.7-.08v-26.64h6.76Z"/>
  <path class="cls-1" d="M277.75,236.57l5.43,18.54,5.5-18.54h6.76l-8.67,26.45c-.19.31-.79.38-1.16.41-.67.07-5.73,0-5.91-.25l-8.79-26.62h6.84Z"/>
  <path class="cls-1" d="M242.3,236.57v9.9c2.36-2.84,6.34-3.87,9.58-1.79,1.42.91,2.84,3.16,2.84,4.86v13.91h-6.13v-12.18c0-.07-.42-1.1-.49-1.23-1.08-1.83-4.02-1.51-5.14.16-.11.17-.66,1.29-.66,1.39v11.63l-.24.24h-5.82l-.08-26.87h6.13Z"/>
  <path class="cls-1" d="M320.42,246.62l1.9-1.79c2.97-2.26,8.19-1.44,9.92,2,.13.25.76,2.07.76,2.23v14.22c-1.98.29-4.14.2-6.13,0v-12.18c0-.05-.34-.87-.41-1.01-1.04-1.98-4.08-1.67-5.22.09-.16.25-.66,1.33-.66,1.55v11.71h-6.13v-19.09l.24-.24h5.74v2.51Z"/>
  <path class="cls-1" d="M312.25,263.12h-6.13l-.46-1.8-.32-.09c-1.76,2.76-5.95,3.2-8.8,1.96-3.67-1.6-4.36-6.9-1.26-9.43,2.49-2.03,5.89-1.55,8.72-2.44.83-.26,1.62-.64,1.63-1.64.04-2.93-5.71-2.6-5.63.39h-5.66c-.32-7.21,11.71-8.4,15.56-4.48,3.05,3.11,1.22,11.96,1.73,16.19.07.58.41.85.63,1.33ZM305.65,254.32c-1.42.47-2.97.71-4.37,1.21-1.06.38-2.05.88-2.09,2.16-.1,2.79,4.12,2.6,5.59,1.18.22-.21.87-1.25.87-1.49v-3.06Z"/>
  <path class="cls-1" d="M213.53,263.12h-6.13c-.24-.53-.3-1.11-.47-1.66-.05-.18.1-.28-.24-.23-3.91,4.96-13.52,2.7-11.98-4.59,1-4.77,6.58-4.27,10.18-5.23,1.23-.33,2.04-.57,1.89-2.05-.17-1.67-2.03-1.82-3.37-1.63-1.45.2-1.89,1.12-2.37,2.34h-5.58c.38-5.52,5.71-6.99,10.45-6.6,10.56.86,5.53,12.01,7.03,18.74.09.4.43.57.6.9ZM206.93,254.32c-1.54.61-3.57.79-5.04,1.49-1.23.59-1.8,1.74-1.12,3.02.82,1.54,3.97,1.18,5.14.21.27-.23,1.02-1.36,1.02-1.65v-3.06Z"/>
  <path class="cls-1" d="M366.95,263.12h-5.89c-.42-.43-.38-1.11-.55-1.66-.05-.18.1-.28-.24-.23-3.98,4.95-13.51,2.68-11.98-4.59.62-2.94,3.11-3.89,5.74-4.47,1.3-.29,5.73-.58,6.23-1.78,1.35-3.22-5.51-3.84-5.58-.31h-5.66c.02-4.01,3.64-6.3,7.31-6.6,4.26-.35,9.4.69,9.96,5.75.4,3.56-.7,10.07.25,13.11.09.3.44.44.4.78ZM360.51,257.54c.14-.67,0-2.2,0-2.99,0-.03.23-.18.16-.23-.17-.01-.34,0-.51.04-1.09.26-3.86,1.04-4.78,1.51-2.37,1.19-1.42,4.06,1.42,4.05,1.38,0,3.42-.89,3.72-2.37Z"/>
  <path class="cls-1" d="M401.22,263.12h-6.13l-.55-2.04c-2.13,2.77-5.88,3.49-9.04,2.12-3.67-1.6-4.36-6.9-1.26-9.43,2.48-2.02,5.9-1.57,8.72-2.44,1.33-.41,2.1-1.18,1.35-2.59-.59-1.11-2.12-1.14-3.21-1-1.49.19-1.86,1.08-2.38,2.34h-5.58c.33-5.52,5.75-6.98,10.45-6.6,10.55.86,5.53,12.04,7.03,18.74.09.4.43.57.6.9ZM394.62,254.32c-1.54.59-3.6.78-5.04,1.49-.87.42-1.43,1.02-1.42,2.05.01,2.61,4.17,2.39,5.59,1.02.22-.21.87-1.25.87-1.49v-3.06Z"/>
  <path class="cls-1" d="M233.97,251.02h-5.74c-.55-1.59-1.4-2.99-3.3-2.98-4.12,0-4.54,6.18-3.34,9,.89,2.08,3.46,3.06,5.39,1.69.98-.69.97-1.69,1.41-2.67h5.74c-.32,6.38-6.43,9.01-12.14,7.5-9.67-2.56-9.45-17.65.5-19.68,5.3-1.08,11.02,1.29,11.48,7.16Z"/>
  <path class="cls-1" d="M189.48,244.11h3.46v3.77h-3.46v9.82c0,1.06,2.69,1.35,3.46,1.18v4.32l-.27.21c-2.96.35-7.39.7-8.84-2.58-.06-.15-.33-.86-.33-.93v-11.86h-2.44l-.24-.24v-3.69h2.44l.24-.24v-5.89h5.74l.24.24v5.89Z"/>
  <path class="cls-1" d="M343.06,244.11h3.46v3.77h-3.46v9.82c0,1.06,2.69,1.35,3.46,1.18v4.32l-.27.21c-2.9.35-7.3.67-8.78-2.48-.08-.17-.38-.92-.38-1.03v-11.86h-2.44l-.24-.24v-3.69h2.44l.24-.24v-5.89h5.74l.24.24v5.89Z"/>
  <path class="cls-1" d="M381.73,249.29c-2.19-.55-4.74.23-5.69,2.41-.21.48-.6,1.93-.6,2.39v9.11l-.24.24h-5.03c-.12,0-.45-.2-.71-.07l-.15-.16v-19.09h5.74l.24.24v2.75l1.33-1.73c.92-.92,2-1.46,3.31-1.56.53-.04,1.43-.13,1.81.23v5.26Z"/>
  <rect class="cls-1" x="172.97" y="244.11" width="6.13" height="19.17"/>
  <rect class="cls-1" x="257.55" y="244.11" width="6.13" height="19.17"/>
  <rect class="cls-1" x="172.97" y="236.57" width="6.13" height="4.87"/>
  <rect class="cls-1" x="257.55" y="236.57" width="6.13" height="4.87"/>
  <path class="cls-1" d="M118.24,246.66c4.32-.39,4.94,6,.88,6.55-4.77.65-5.13-6.17-.88-6.55Z"/>
</svg>