<?xml version="1.0" encoding="UTF-8"?>
<svg id="Layer_1" data-name="Layer 1" xmlns="http://www.w3.org/2000/svg" viewBox="0 0 500 500">
  <defs>
    <style>
      .cls-1 {
        fill: #b80001;
      }

      .cls-2 {
        fill: #fff;
      }
    </style>
  </defs>
  <rect class="cls-2" x="138.37" y="208.89" width="82.22" height="82.22"/>
  <polygon class="cls-1" points="261.7 250 220.59 208.89 220.59 291.11 261.7 250"/>
  <polygon class="cls-1" points="179.48 250 220.59 208.89 138.37 208.89 179.48 250"/>
  <polygon class="cls-1" points="97.26 250 138.37 291.11 138.37 208.89 97.26 250"/>
  <polygon class="cls-1" points="179.48 250 138.37 291.11 220.59 291.11 179.48 250"/>
  <path class="cls-2" d="M297.78,252.56h-14.9v14.71h-7.48v-34.43h7.48v14.1h14.9v-14.1h7.48v34.43h-7.48v-14.71Z"/>
  <path class="cls-2" d="M323.16,267.87c-7.43,0-13.52-2.95-13.67-11.19h7.48c.09,3.67,2.24,5.86,6.33,5.86,3.05,0,6.47-1.53,6.47-4.95,0-2.67-2.32-3.53-6.19-4.64l-2.48-.72c-5.42-1.57-10.81-3.67-10.81-9.86,0-7.67,7.14-10.24,13.67-10.24s12.48,2.32,12.52,9.95h-7.48c-.28-3.14-2.09-4.95-5.62-4.95-2.76,0-5.52,1.48-5.52,4.52,0,2.52,2.29,3.28,7.14,4.81l2.86.9c5.91,1.86,9.62,3.9,9.62,9.62,0,7.89-7.57,10.89-14.33,10.89Z"/>
  <path class="cls-2" d="M341.7,232.84h11.94c3.76,0,5.28.1,6.76.43,4.19.93,7.32,3.63,7.32,8.27s-2.81,6.72-6.86,7.77c4.64.85,8.12,3.24,8.12,8.33,0,7.81-7.72,9.62-13.76,9.62h-13.52v-34.42ZM353.71,247.15c3.28,0,6.62-.67,6.62-4.64,0-3.57-3.14-4.52-6.14-4.52h-5.22v9.18l4.75-.02ZM354.4,262.09c3.48,0,6.9-.81,6.9-5s-2.95-5.05-6.47-5.05h-5.88v10.05h5.45Z"/>
  <path class="cls-2" d="M388.45,267.87c-11.1,0-16.1-7.09-16.1-17.57s5.52-18.15,16.47-18.15c6.86,0,13.53,3.05,13.72,10.86h-7.72c-.38-3.43-2.67-5.22-6-5.22-6.71,0-8.76,7.24-8.76,12.76s2.05,11.87,8.53,11.87c3.38,0,5.86-1.81,6.38-5.28h7.76c-.84,7.78-7.12,10.73-14.29,10.73Z"/>
</svg>