<?xml version="1.0" encoding="UTF-8"?>
<svg id="Layer_1" data-name="Layer 1" xmlns="http://www.w3.org/2000/svg" viewBox="0 0 500 500">
  <defs>
    <style>
      .cls-1 {
        fill: #2463a9;
        fill-rule: evenodd;
      }
    </style>
  </defs>
  <path class="cls-1" d="M220,207.5c1.3,0,2.35-1.06,2.35-2.36.03-1.3-.99-2.38-2.29-2.42-1.3-.03-2.38.99-2.42,2.29,0,.04,0,.08,0,.13,0,1.3,1.05,2.36,2.36,2.36h0ZM248.49,255.86c3.5,0,5.85-.47,7.75-1.17,1.89-.7,3.34-1.55,4.39-2.41,1-.82,1.64-1.65,2.71-2.2.94-.49,2.27-.6,3.76-.6,2.14,0,4.54.66,6.3,1.63l.25-3.27c-1.17-.58-5.3-2.03-8.89-2.03-4.08,0-5.62,1.1-7.12,2.46-1.75,1.59-3.97,3.48-9.95,3.48-1.59,0-5.42-.43-6.98-.43-.94,0-1.67.24-1.67.24.28.9.9,3.36.9,3.36,1.43.18,3.93.95,8.55.95h0ZM230.09,246.16c1.21,0,4.74.54,8.81.93,2.31.22,4.79.39,7.12.39,4.57,0,9.58-2.17,14.01-4.45l-.87-3.15c-2.07,1.13-6,2.39-9.29,2.91-.81.13-3.15.16-3.82.06-1.11-.17-2.43-.57-3.86-.83-2-.38-4.19-.47-5.49-.52-1.43-.06-4,.18-5.26.26-4.63.28-7.69,1.37-10.62,3.34-1.48,1-3.37,2.64-4.83,4.62.75.06,2.89.65,2.89.65,3.16-2.69,7.91-4.22,11.2-4.22h0Z"/>
  <path class="cls-1" d="M174.27,247.68c2.26,0,3.16.73,4.41,1.48.87.54,1.56,1.13,2.21,1.72,1.39,1.24.99,2.39-.1,3.25-.56.45-1.04.98-2.46,1.9-.68.45-1.86,1.17-2.67,1.51-1.42.59-2.03.65-2.55.65s-1.35-.08-1.82-.54l-3.61,2.21c1.08.84,2.31,1.13,4.38,1.13,2.34,0,4.2-.5,6.5-1.41,2.99-1.18,6.34-3.5,7.46-4.14,2.28-1.3,4.58-2.15,7.05-2.15,2.17,0,4.62,1.29,7.37,2.6,3.24,1.55,7.2,3.08,10.83,3.08,2.18,0,4.62-.32,7.18-.84,4.54-.93,9.43-2.46,14.2-4.08l-1.55-2.79c-1.16.43-5.16,1.55-9.45,2.51-3.56.78-7.16,1.49-9.04,1.49-1.53,0-3.33-.11-4.94-.61-2.74-.82-5.19-1.69-5.19-3.88,0-1.52.65-2.6,2.49-3.34,2.98-1.2,7.62-1.12,10.06-1.12.46-.49,2.3-2.71,2.3-2.71-1.96-.39-3.95-.6-5.94-.6-3.06,0-5.89.39-8.23,1.38-2.17.91-3.88,2.23-5.12,4.01-.5.71-1.01,1.38-1.76,1.38-1.24,0-3.39-1.01-5.63-1.01-.98,0-1.81.2-2.67.2-2.27,0-5.23-1.65-7.87-3.06-1.66-.89-3.37-1.72-5.36-1.72-.82,0-1.95.2-2.96.63-1.93.81-3.88,2.11-4.87,2.93l1.77,1.21c1.03-.54,2.9-1.27,5.56-1.27h0ZM333.76,273.02c-8.49-7.16-16.71-15-22.5-21.4-10-11.05-23.63-32.12-28.29-44.05-1.72-4.39-5.27-2.9-3.45,1.56,4.39,10.78,14.53,26.63,25.11,39.7-2.47-1.09-5.52-2.56-7.18-3.29-.56.92-1.96,2.74-3.39,4.24-1.66,1.73-3.37,3.13-3.9,3.61-1.16,1.08-2.02,1.16-2.8-.04-.36-.57-1.11-1.59-1.51-3.37l-2.25-2.85c-1.21-1.51-6.85-9.24-8.58-11.84-1.72-2.59-3.96-5.36-7.59-5.36-4.48,0-6.03,4.97-6.38,9.5l2.98-1.29c.69-2.81,2.07-4.27,3.41-4.27.95,0,2.12,1.38,2.12,2.42-.43,1.21-1.22,3.72-1.6,5.66l2.93.99c0-1.43.6-4.02,1.42-5.36,0,0,.81.69,1.12,1.25.19.36,1.64,2.58,3.32,5.53,1.5,2.63,3.16,5.88,4.7,8.47.74,1.25,1.59,2.36,2.16,3.24.76,1.16,1.44,1.97,2.16,2.38.67.37,1.4.38,1.99.38,1.9,0,2.77-.63,4.05-1.72,2.41-2.08,4.49-4.97,6.64-7.56l5.06,2.29c1.96.93,3.93,1.82,5.93,2.68,4.32,4.9,9.15,9.71,14.22,14.27l3.44,3.04c.94.81,1.88,1.61,2.84,2.4l3.82-1.21h0Z"/>
  <path class="cls-1" d="M352.77,271.55c-8.67-18.99-20.1-42.33-29.88-56.64l-2.28-3.21c-3.26-4.4-6.8-8.05-10.26-11.59l-2.69-2.65c-6.77-6.56-14.38-13.12-20.17-17.8-5.11-4.12-8.74-13.61-20.45-13.61-10.55,0-14.16,7.17-15.34,11.37-.78,2.76-1.12,3.71-1.86,4.75l-6.7,7.98,7.9-.64-4.01,6.65c2.3-.48,16.16-3.26,19.01,1.21,3.46,5.41,1.1,11.29,7.57,23.61l2.8,4.87c3.22,5.18,7.03,10.26,10.42,14.28l-3.24,6.99,2.25,2.85,5.04-10.62c-2.57-2.3-10.27-12.64-13.45-18.4-7.23-13.09-4.39-19.82-8.8-25.82-4.09-5.57-15.77-2.94-15.77-2.94l4.31-6.05-7.46.91,3.45-4.15c.74-1.07.91-1.72,1.21-2.76,1.46-5.31,5.31-10.58,12.6-10.58,8.86,0,11.39,6.8,17.55,12.21,6.23,5.49,19.3,16.04,31.26,29.68,9.64,11,22,36.57,31.49,56.75-10.38-5.06-27.95-22.45-35.32-35.47l-3.47-.41c7.9,15,24.87,32.46,41.65,41.96l2.64-2.75h0Z"/>
  <path class="cls-1" d="M328.74,208.87c2.77-1.99,6.04-3.61,9.49-4.92,2.12,2.57,7.13,4.83,11.1,5.36l-.64,4.2c-4.41-2.22-12.19-4.49-19.96-4.64l-3.48,2.99c10.54.2,17.25,2.33,25.94,5.98l1.72-11.1c-3.44-.47-8.87-1.46-10.75-4.13,7.95-2.42,16.19-3.33,21.06-3.26v-13.67c-2.17,1.27-4.91,2.46-7.49,3.26-3.16.97-6.03,1.39-6.82,0-.87-1.53,3.48-4.26,7.97-6.64l-10.1-8.39c-1.53,2.06-5.01,7.82-8.55,11.63-2.52,2.7-5.11,4.48-6.59,3.37-.78-.59-.81-2.28-.17-4.41,1.23-4.1,4.46-9.79,6.43-12.29l-13.97-1.32c0,5.71-2.68,11.99-5.98,17.07-2.85,4.37-6.97,7.55-10.28,9.5l2.69,2.65c4.09-2.84,8.07-6.32,11.14-11.27,2.48-3.98,4.78-8.79,5.64-14.43l4.84.56c-2.01,3.69-4.28,9.41-4.46,13.16.12,2.55.61,3,1.92,3.97,2.43,1.82,5.43.6,8.29-1.86,3.16-2.7,6.26-7.21,9.41-11.3l4.08,3.41c-5.18,3.19-6.64,6.6-5.06,8.86.62.88,1.95,1.54,3.6,1.59,1.64.04,3.58-.44,5.69-.95,1.49-.36,3.1-.88,4.59-1.34v5.44c-11.76.84-31.84,5.6-39.44,15.74l2.28,3.21c.66-1.08,1.45-2.09,2.36-3.05l3.48-2.99h0ZM174.93,182.15l1.58,1.19c4.14-3.37,8.97-9.5,11.7-15.27l-1.41-1c-2.64,2.42-8.93,10.31-11.87,15.09Z"/>
  <path class="cls-1" d="M172.5,178.47c-2.32-8.19,3.63-13.09,9.84-12.64,2.33-4.49,5.98-5.38,9.87-3.05,3.61,2.17,3.31,7.7.3,10.29,1.08,4.92-3.3,11.94-10.08,11.59.81,6.8-7.53,10.66-12.59,6.23-4.2-3.69-3.32-9.82,2.66-12.42ZM169.63,177.21c-2.16.47-3.28,1.55-4.24,3.89.64-5.32-2.89-10.41-8.71-10.02.57-9.5-8.84-15.16-17.16-10.53-4.92-4.21-10.41-3.35-13.72.56-3.16,3.74-3.05,10.06,3.33,13.43-1.61,6.56,4.4,13.08,11.46,11.57.41,2.02,1.89,3.1,3.84,3.91-2.94.17-4.14,3.09-4.14,3.09-9.37-2.4-14.2,3.83-14.36,10.36-6.84,2.08-8.75,10.62-3.51,15.62,5.41,5.18,11.87,3.05,14.69-2.24,6.04,2.3,12.51-1.43,12.67-8.11,6.73.63,9.31-4.67,8.69-10.26l-2.13-.17c-.92,5.19-3.39,7.43-9.02,7.43-.24,4.99-5.58,9.32-11.62,8.17-1.69,3.99-6.67,5.29-10.06,1.95-3.39-3.34-2.26-9.61,3.71-10.75-.24-6.12,5.71-9.91,14.22-9.51,2.42-3,4.37-4.27,7.99-3.92l.03-1.74c-3.4-.46-7.22-3.67-7.51-7.13-7.25.58-12.21-3.58-11.96-10.09-4.66-2.18-3.82-6.96-2.31-8.77,2.6-3.13,6.23-2.88,9.16-.35,8.28-3.17,14.94,3.37,14.94,10.51,0,0,3.87-.07,6.04,2.19,2.87,3,2.87,5.62,3.56,8.53.64,2.75,2.03,6.41,5.41,9.04,5.97,4.66,15.23,3.4,16.18-6.43,7.95.71,13.18-5.54,10.56-13.17,5.57-3.97,4.46-12.16-.77-15.33-4.5-2.97-10.57-1.73-13.54,2.77-.27.41-.51.84-.72,1.29-8.15-1.87-14.79,6.25-10.99,14.2h0ZM206.39,224.81c.72-2.87-3.06-3.29-3.58-.65-.55,2.83-3.99,7.65-7.24,10.66l1.16,1.25c4.27-3.19,8.74-7.61,9.66-11.27h0ZM225.37,177.47c1.33-.05,2.36-1.16,2.31-2.49-.05-1.26-1.05-2.26-2.31-2.31-1.33,0-2.39,1.08-2.39,2.4s1.07,2.4,2.39,2.4ZM260.72,179.66c.04-1.57,1.34-2.82,2.92-2.78,1.52.04,2.74,1.26,2.78,2.78,0,1.57-1.27,2.85-2.84,2.86,0,0,0,0,0,0-1.57,0-2.85-1.28-2.85-2.86h0ZM256.21,230.88c-18.53-1.42-36.97-.26-36.97-.26l1.3-3.4c17.71-1.29,35.94,0,35.94,0l-.26,3.65h0Z"/>
  <path class="cls-1" d="M144.25,243.77s1.05,1.4,2.69,3.14c.55.78,1.16,1.34,1.94,2.07,3.4,3.31,8.39,5.8,13.55,6.79,1.46.28,2.77.5,4.22.5,2.2,0,4.22-1.18,5.52-2.34l-2.02-2.35c-.65.19-2,.19-2.9.19-7.47,0-16.96-4.89-19.14-10.56-.22-.55-.48-.86-.26-1.38.21-.52.49-1.62.64-2.63.44.5,1.34,1.26,2.49,2,2.78,1.78,8.08,4.25,9.11,4.91,2.17-.62,4.27-1.46,6.27-2.5,1.55-.81,3.68-1.53,6.14-1.53,5.46,0,11.74,3.11,17.63,6.02l4.03-1.58c-5.23-3.69-16.61-8.84-22.95-8.84-3.73,0-7.24,2.74-9.74,2.74-3.07,0-11.86-4.29-11.86-7.86,0-2.75,5.69-4.32,14.84-5.44-1.6,2.35-3.09,4.77-4.48,7.25l2.33,1.29c14.33-20.78,29.23-34.28,41.76-42.49,4.56-2.99,5.59-4.74,7.18-8,3.88-7.95,7.55-14.06,13.92-14.06,2.97,0,5.4,1.68,7.08,3.75l4.61,1.38-4.67,3.17,4.77,1.9c-6.23,1.75-14.74,7.82-18.19,16.71-6.64.35-9.84,5.73-12,10.24-1.47,3.04-3.79,4.25-7.19,6.55l-27.13,18.94,3.74.52,25.06-16.82c4.95-3.34,7.29-5.8,8.48-8.17,2.32-4.66,4.83-8.12,9.75-8.12,2.42,0,5,1.03,7.07,3l4.4,1.43-4.8,2.94,4.03,2.48c-11.51,3.61-18.64,11.86-22.77,27.64l3.04.68c1.52-5.22,3.04-10.01,5.73-14.25,6.66-.07,13.41-.32,20.03-.32,17.67,0,32.33.75,40.25,3.09l-2.8-4.87c-8.46-1.45-20.75-2.19-37.45-2.19-5.59,0-11.27.2-16.9.27,3.64-3.85,8.87-7.1,16.93-9.6l-5.71-3.15,6.35-3.53-8.65-3.22c-1.51-1.36-3.4-2.6-5.76-3.21,2.77-8.52,12.21-13.51,21.26-16.94l-6.34-2.6,6.39-3.5-9.84-3.14c-2.57-3.03-5.04-4.41-8.83-4.41-9.13,0-12.98,7.94-16.59,14.97-1.91,3.71-3.11,5.27-6.35,7.39-7.03,4.6-15.97,11.63-24.52,20.64-4.46-3.22-13.59-12.65-16.05-17.8-.98,1.21-1.95,3.85-1.95,3.85.94.98,11.67,11.85,15.67,16.46-.3.33-.6.67-.9,1.01-4.26.85-15.31,1.91-19.08,1.4l-2.12,3.75c2.81-.28,13.8-1.57,18.36-1.84-1.4,1.7-2.75,3.43-4.06,5.19-14.12,1.61-23.57,4.51-23.57,9.74,0,.86.35,1.84.35,2.76,0,2.19-.82,3-2.38,3.97-1.01.64-1.08,1.08-.64,1.69,2.34,3.79-4.93,5.67.14,12.44l4.3.26s-4.19-2.44-1.43-7.89h0ZM138.67,168.57l-1.4,1.43c2.01,2.87,10.92,10.85,15.43,13.82l1.66-2.06c-2.96-3.48-11.38-11-15.7-13.19h0ZM132.53,208.79l1.32,1.44c3.4-1.64,9.78-6.37,13.23-9.91l-.95-1.41c-4.06,1.69-10.32,6.33-13.6,9.88h0Z"/>
  <path class="cls-1" d="M329.21,267.62c0-2.48-2-4.49-4.48-4.49h-6.64c-2.48,0-4.49,2.02-4.48,4.5h0s0,69.47,0,69.47c0,2.48,2,4.49,4.47,4.49h6.65c2.48,0,4.49-2.02,4.48-4.5h0v-69.47h0ZM337.68,269.46v3.3c0,1.37,1.12,2.47,2.49,2.47h45.82c2.09,0,3.78-1.69,3.78-3.78v-5.59c0-2.09-1.72-3.98-3.79-3.78,0,0-44.29,4.35-45.72,4.51-1.65.18-2.58,1.5-2.58,2.87h0ZM300.58,341.59c-11.4,0-18.57-8.64-18.57-18.27v-27.79h-3.27c-1.74,0-3.14-1.4-3.15-3.14h0v-4.66c0-1.74,1.42-3.13,3.15-3.13h3.26s0-17.09,0-17.09c0-2.41,1.95-4.38,4.36-4.38,0,0,0,0,.01,0h6.48c2.42,0,4.38,1.97,4.37,4.39v17.08h10.1c1.74,0,3.16,1.4,3.16,3.14v4.65c0,1.73-1.41,3.14-3.14,3.14,0,0,0,0,0,0h-10.11v25.71c0,5.05,3.06,8.49,8.54,8.49h.92c1.89,0,3.42,1.51,3.42,3.4v5.05c0,1.88-1.52,3.41-3.4,3.41,0,0,0,0-.01,0h-6.09s0,0,0,0ZM222.53,312.21c0-14.82-8.77-29.61-28.7-29.61-18.43,0-28.76,14.42-28.76,29.62,0,16.19,11.07,30.45,28.88,30.45,12.19,0,24.21-6.42,26.48-16.98.31-1.42-.65-3.29-2.66-3.3h-8.71c-1.58,0-2.87.76-3.65,1.9-2.49,3.65-6.14,5.6-11.54,5.6-7.63,0-12.92-6.01-13.32-12.68h37.05c3.41,0,4.94-1.85,4.94-5.01h0ZM180.66,305.88c.6-6.55,6.37-11.39,13.17-11.39s12.67,4.84,13.27,11.39h-26.44ZM391.36,312.21c0-14.82-8.77-29.61-28.7-29.61-18.43,0-28.76,14.42-28.76,29.62,0,16.19,11.07,30.45,28.88,30.45,12.19,0,24.21-6.42,26.48-16.98.31-1.42-.65-3.29-2.66-3.3h-8.71c-1.58,0-2.87.76-3.65,1.9-2.49,3.65-6.14,5.6-11.54,5.6-7.63,0-12.92-6.01-13.32-12.68h37.05c3.41,0,4.93-1.85,4.93-5.01h0ZM349.48,305.88c.59-6.55,6.36-11.39,13.17-11.39s12.68,4.84,13.27,11.39h-26.44Z"/>
  <path class="cls-1" d="M269.53,263.9h-120.01c-2.72,0-4.93,2.21-4.93,4.93,0,0,0,0,0,0l.41,47.13s-25.86-46.71-27.21-49.09c-1.27-2.24-3.99-4.31-7.76-4.31h-9.87c-2.73,0-4.94,2.21-4.94,4.94,0,0,0,0,0,0v69.12c0,2.73,2.21,4.94,4.94,4.94h6.33c2.73,0,4.94-2.22,4.93-4.95l-.4-48.45s26.11,47.18,27.23,49.03c1.51,2.51,4.05,4.38,7.75,4.38h9.07c2.73,0,4.94-2.21,4.93-4.94h0s0-61.03,0-61.03h109.53c1.86,0,3.37-1.49,3.38-3.35,0,0,0,0,0,0v-4.98c0-1.86-1.52-3.37-3.39-3.37h0Z"/>
  <path class="cls-1" d="M250.11,293.91c5.22,0,9.12,1.89,10.53,5.16.67,1.57,1.98,1.87,3.78,1.87h7.17c1.19,0,2.55-1.02,2.55-2.57,0-8.34-9.95-15.79-24.04-15.79s-24.14,6.94-24.14,18c0,8.46,6.69,13.49,14.9,15.64,3.75.98,10.14,2.56,13.26,3.38,3.36.88,6.36,1.91,6.36,4.78,0,4.54-4.78,6.08-10.01,6.08-4.95,0-9.88-2.21-11.3-5.74-.82-2.04-2.25-2.34-4.43-2.34h-7.3c-1.27,0-2.74,1.09-2.74,2.75v.94c0,8.07,10.83,16.53,25.77,16.53,10.6,0,25.36-4.41,25.36-18.61,0-8.23-5.51-13.92-14.46-16.2-3.5-.89-11.93-3.03-13.76-3.5-3.27-.85-6.31-1.91-6.31-4.71,0-4.24,3.92-5.68,8.81-5.68h0ZM396.5,338.67h-1.63v-7.61h2.84c1.96,0,3.12.56,3.12,2.3,0,1.4-.82,1.91-1.83,1.98l1.94,3.33h-1.93l-1.75-3.2h-.77v3.2h0ZM397.94,334.18c.73,0,1.16-.15,1.16-.99,0-.78-.84-.84-1.45-.84h-1.14v1.83h1.44ZM397.68,341.94c-3.75,0-7.1-2.6-7.1-7.07s3.35-7.06,7.1-7.06,7.09,2.6,7.09,7.06-3.35,7.07-7.09,7.07ZM397.68,329.45c-2.8,0-5.06,2.17-5.06,5.42s2.26,5.44,5.06,5.42v.02c2.73,0,5.05-2.19,5.05-5.44s-2.31-5.42-5.05-5.42h0Z"/>
</svg>