<?xml version="1.0" encoding="UTF-8"?>
<svg id="Layer_3" data-name="Layer 3" xmlns="http://www.w3.org/2000/svg" viewBox="0 0 500 500">
  <defs>
    <style>
      .cls-1 {
        fill: #fff200;
      }

      .cls-2 {
        fill: #ed1c24;
      }
    </style>
  </defs>
  <path class="cls-2" d="M329.48,327.47l-64.46.57c-9.22,8.63-19.54,8.66-28.74,0h-65.03s-5.37-47.85-5.37-47.85l-40.84-29.55c-12.21-67.23,30.42-135.68,97.91-149.93,87.5-18.47,162.89,54.45,153.26,142-.21,1.87-.45,5.94-1.36,7.09l-39.99,29.84-5.38,47.83ZM243.33,120.81h-12.67c-2.12,0-8.58,2.31-10.8,3.28-1.5.66-6.79,3.1-6.81,4.75l25.5,129.37-1.73.02-35.75-123.89c-5.83,1.3-11.95,4.62-16.57,8.45-2.06,1.7-9.58,9.03-9.21,11.39l50.71,105.87.43,3.78-1.98-1.12-57.15-97.98c-.75-.54-3.31,2.45-3.92,3.11-4.21,4.59-13.1,18.25-10.97,24.45l63.31,78.02-1.95.85-65.33-65.89c-3.81,10.87-6.33,23.66-1.98,34.64l39.7,30.12,4.23,36.6h48.13c2.69,1.36,4.07,4.15,6.87,5.53,6.43,3.16,12.58-.19,16.34-5.54l48.59-.55,3.79-37.03,38.75-28.82c2.26-2.59,2.71-13.52,2.5-17.19-.12-2.19-2.84-17.16-4.78-17.17l-65.03,64.74,2.02-3.89,60.72-76.61c-1.56-9.9-7.99-19.67-15.71-25.92l-56.28,98.58-2.01.52.43-3.78,49.48-106.3c-5.42-9.41-15.5-14.63-24.87-19.41l-35.48,123.3h-1.69s23.96-128.67,23.96-128.67c-.26-2.21-8.52-5.07-10.71-5.63-1.44-.37-5.9-1.4-7.04-1.4h-11.82c-.8.49-.78,1.12-.87,1.94-.42,3.56.19,8.13.05,11.88-1.28,33.93-2.59,67.95-3.99,101.87-.29,6.95.12,13.91-.54,20.85l-1.4,1.41-6.48-138.52Z"/>
  <g>
    <path class="cls-2" d="M125.64,384.9h21.12l.74.95c.02,1.94.53,5,2.49,5.96,2.48,1.21,11.3,1.34,14.17.93,6.63-.93,7.94-11.78,0-12.85-8.54-1.15-26.19,1.41-33.08-2.96-6.84-4.33-5.98-20.33,1.67-24.05,6.31-3.07,21.65-1.67,29.23-1.74,1.33-.01,2.56-.59,3.9-.61,11.41-.13,27.93-.97,23.99,15.54l-19.95.17-.85-.84c1.49-8.52-9.85-7.47-15.58-6.98-2.72.23-5.91.58-6.42,3.71-1.9,11.74,12.83,7.77,20.54,8.11,4.48.2,11.34.55,15.45,2.01s7.08,4.05,7.75,8.58c1.33,9.02.37,18.62-10.34,19.77-12.05,1.29-32.39,1.62-44.27-.08-8.7-1.24-11.29-7.45-10.56-15.62Z"/>
    <path class="cls-2" d="M218.55,351.68v14.92c0,1.89,8.33-.74,9.83-.86,6.21-.5,20.78-.39,24.43,5.45.22.35,1.21,2.58,1.21,2.73v26.47l-.84.84h-16.89l-.84-.84v-22.52c-4.09-4-12.86-3.48-16.89.56v22.81h-18.58v-49.55h18.58Z"/>
    <path class="cls-2" d="M299.64,389.4h18.58c1,8.63-5.71,11.85-13.21,12.41s-31.03.82-36.91-1.98c-6.34-3.02-6.58-13.09-6.21-19.18s1.92-11.78,8.49-14.04c7.08-2.43,32.01-2.04,39.52-.13,3.11.79,8.89,4.55,8.89,8v11.26c-.49.8-1.12.78-1.94.87-4.59.54-9.67-.52-14.08-.61-6.38-.13-12.77.13-19.15.04-3.3.62-2.08,6.01-.28,7.57,3.05,2.63,16.88,2.38,16.31-4.2ZM287.1,372.65c-2.99.54-6.17,3.88-3.43,6.54.93.31,12.67.31,13.98.06.92-.18,1.56-.61,1.91-1.51-.6-5.77-8-5.91-12.46-5.1Z"/>
    <rect class="cls-2" x="327.79" y="351.68" width="18.58" height="49.55"/>
    <rect class="cls-2" x="357.07" y="351.68" width="18.58" height="49.55"/>
  </g>
  <path class="cls-1" d="M243.33,120.81l6.48,138.52,1.4-1.41c.67-6.95.26-13.91.54-20.85,1.4-33.92,2.71-67.94,3.99-101.87.14-3.75-.47-8.32-.05-11.88.1-.82.07-1.45.87-1.94h11.82c1.15,0,5.61,1.04,7.04,1.4,2.19.56,10.45,3.42,10.71,5.63l-23.96,128.68h1.69s35.48-123.31,35.48-123.31c9.36,4.78,19.44,10,24.87,19.41l-49.48,106.3-.43,3.78,2.01-.52,56.28-98.58c7.71,6.25,14.15,16.02,15.71,25.92l-60.72,76.61-2.02,3.89,65.03-64.74c1.94.01,4.66,14.98,4.78,17.17.21,3.68-.24,14.6-2.5,17.19l-38.75,28.82-3.79,37.03-48.59.55c-3.76,5.35-9.91,8.7-16.34,5.54-2.8-1.38-4.18-4.17-6.87-5.52h-48.13s-4.23-36.61-4.23-36.61l-39.7-30.12c-4.35-10.98-1.83-23.77,1.98-34.64l65.33,65.89,1.95-.85-63.31-78.02c-2.13-6.21,6.76-19.86,10.97-24.45.61-.66,3.17-3.66,3.92-3.11l57.15,97.98,1.98,1.12-.43-3.78-50.71-105.87c-.36-2.36,7.16-9.69,9.21-11.39,4.62-3.83,10.74-7.15,16.57-8.45l35.75,123.89,1.73-.02-25.5-129.37c.02-1.66,5.32-4.1,6.81-4.75,2.21-.97,8.68-3.28,10.8-3.28h12.67Z"/>
</svg>