<?xml version="1.0" encoding="UTF-8"?>
<svg id="Layer_1" data-name="Layer 1" xmlns="http://www.w3.org/2000/svg" viewBox="0 0 500 500">
  <defs>
    <style>
      .cls-1 {
        fill: #0d3896;
      }
    </style>
  </defs>
  <path class="cls-1" d="M378.56,228.89l6.76,1.11c7.96,1.91,16.42,7.25,18.8,15.46.31,1.08.44,2.16.77,3.22-.07.92.09,1.93,0,2.83-2.48,24.03-47.9,26.58-56.03,4.24-5.46-15.01,11.28-26.38,24.64-26.61l.41-.24h4.65ZM375.89,234.9c-12.11.04-13.65,26.39-2.04,29.88,7.5,2.26,11.78-7.21,12.19-13.16s-2.52-16.74-10.15-16.72Z"/>
  <path class="cls-1" d="M135.35,230.69v5.65h-10.07l13.81,23.88,12.78-24.14h-7.23v-5.39h27.63v5.39c-1.84.07-3.71-.1-5.55,0-1.19.06-3.03.19-4.02.63l-17.77,33.38-22.45.12-18.24-33.87h-9.17v-5.65h40.28Z"/>
  <path class="cls-1" d="M314.27,230.69v5.65h-9.81l13.81,23.89,12.78-24.15h-7.49v-5.01l.39-.39h27.11c1,1.54-.02,3.68.13,5.4l-9.26.3-17.99,33.61-.51.26-21.82-.13-18.2-33.78h-9.17v-5.65h40.02Z"/>
  <path class="cls-1" d="M193.91,229.74c14.35-1.12,36.57,7.78,31.11,25.55-6.41,20.86-48.16,21.18-55.33.45-5.19-15,11.26-24.99,24.22-26ZM191.21,237.97c-7.87,7.62-4.74,29.49,7.41,27.03,10.33-2.1,11.18-24.87,1.11-28.88-3.12-1.24-6.17-.42-8.52,1.85Z"/>
  <path class="cls-1" d="M265.22,230.69v5.65h-9.29v27.74h10.97c.82,0,4.01-1.14,4.86-1.59,3.89-2.03,6.44-6.35,6.37-10.74h5.94v18.5h-55.12c-.14,0-.57-.4-.9-.26v-5.91h9.81v-27.74h-9.29v-5.65h36.66Z"/>
</svg>